HIERARCHY
ROOT Hips
{
	OFFSET 0.000000 0.000000 0.000000
	CHANNELS 6 Xposition Yposition Zposition Zrotation Yrotation Xrotation 
	JOINT LHipJoint
	{
		OFFSET 0.000000 0.000000 0.000000
		CHANNELS 3 Zrotation Yrotation Xrotation
		JOINT LeftUpLeg
		{
			OFFSET 1.363060 -1.794630 0.839290
			CHANNELS 3 Zrotation Yrotation Xrotation
			JOINT LeftLeg
			{
				OFFSET 2.448110 -6.726130 0.000000
				CHANNELS 3 Zrotation Yrotation Xrotation
				JOINT LeftFoot
				{
					OFFSET 2.562200 -7.039590 0.000000
					CHANNELS 3 Zrotation Yrotation Xrotation
					JOINT LeftToeBase
					{
						OFFSET 0.157640 -0.433110 2.322550
						CHANNELS 3 Zrotation Yrotation Xrotation
						End Site
						{
							OFFSET 0.000000 0.000000 0.000000
						}
					}
				}
			}
		}
	}
	JOINT RHipJoint
	{
		OFFSET 0.000000 0.000000 0.000000
		CHANNELS 3 Zrotation Yrotation Xrotation
		JOINT RightUpLeg
		{
			OFFSET -1.305520 -1.794630 0.839290
			CHANNELS 3 Zrotation Yrotation Xrotation
			JOINT RightLeg
			{
				OFFSET -2.542530 -6.985550 0.000000
				CHANNELS 3 Zrotation Yrotation Xrotation
				JOINT RightFoot
				{
					OFFSET -2.568260 -7.056230 0.000000
					CHANNELS 3 Zrotation Yrotation Xrotation
					JOINT RightToeBase
					{
						OFFSET -0.164730 -0.452590 2.363150
						CHANNELS 3 Zrotation Yrotation Xrotation
						End Site
						{
							OFFSET 0.000000 0.000000 0.000000
						}
					}
				}
			}
		}
	}
	JOINT LowerBack
	{
		OFFSET 0.000000 0.000000 0.000000
		CHANNELS 3 Zrotation Yrotation Xrotation
		JOINT Spine
		{
			OFFSET 0.028270 2.035590 -0.193380
			CHANNELS 3 Zrotation Yrotation Xrotation
			JOINT Spine1
			{
				OFFSET 0.056720 2.048850 -0.042750
				CHANNELS 3 Zrotation Yrotation Xrotation
				JOINT Neck
				{
					OFFSET 0.000000 0.000000 0.000000
					CHANNELS 3 Zrotation Yrotation Xrotation
					JOINT Neck1
					{
						OFFSET -0.054170 1.746240 0.172020
						CHANNELS 3 Zrotation Yrotation Xrotation
						JOINT Head
						{
							OFFSET 0.104070 1.761360 -0.123970
							CHANNELS 3 Zrotation Yrotation Xrotation
							End Site
							{
								OFFSET 0.000000 0.000000 0.000000
							}
						}
					}
				}
				JOINT LeftShoulder
				{
					OFFSET 0.000000 0.000000 0.000000
					CHANNELS 3 Zrotation Yrotation Xrotation
					JOINT LeftArm
					{
						OFFSET 3.362410 1.200890 -0.311210
						CHANNELS 3 Zrotation Yrotation Xrotation
						JOINT LeftForeArm
						{
							OFFSET 4.983000 -0.000000 -0.000000
							CHANNELS 3 Zrotation Yrotation Xrotation
							JOINT LeftHand
							{
								OFFSET 3.483560 -0.000000 -0.000000
								CHANNELS 3 Zrotation Yrotation Xrotation
								JOINT LeftFingerBase
								{
									OFFSET 0.000000 0.000000 0.000000
									CHANNELS 3 Zrotation Yrotation Xrotation
									JOINT LeftHandIndex1
									{
										OFFSET 0.715260 -0.000000 -0.000000
										CHANNELS 3 Zrotation Yrotation Xrotation
										End Site
										{
											OFFSET 0.000000 0.000000 0.000000
										}
									}
								}
								JOINT LThumb
								{
									OFFSET 0.000000 0.000000 0.000000
									CHANNELS 3 Zrotation Yrotation Xrotation
									End Site
									{
										OFFSET 0.000000 0.000000 0.000000
									}
								}
							}
						}
					}
				}
				JOINT RightShoulder
				{
					OFFSET 0.000000 0.000000 0.000000
					CHANNELS 3 Zrotation Yrotation Xrotation
					JOINT RightArm
					{
						OFFSET -3.136600 1.374050 -0.404650
						CHANNELS 3 Zrotation Yrotation Xrotation
						JOINT RightForeArm
						{
							OFFSET -5.241900 -0.000000 -0.000000
							CHANNELS 3 Zrotation Yrotation Xrotation
							JOINT RightHand
							{
								OFFSET -3.444170 -0.000000 -0.000000
								CHANNELS 3 Zrotation Yrotation Xrotation
								JOINT RightFingerBase
								{
									OFFSET 0.000000 0.000000 0.000000
									CHANNELS 3 Zrotation Yrotation Xrotation
									JOINT RightHandIndex1
									{
										OFFSET -0.622530 -0.000000 -0.000000
										CHANNELS 3 Zrotation Yrotation Xrotation
										End Site
										{
											OFFSET 0.000000 0.000000 0.000000
										}
									}
								}
								JOINT RThumb
								{
									OFFSET 0.000000 0.000000 0.000000
									CHANNELS 3 Zrotation Yrotation Xrotation
									End Site
									{
										OFFSET 0.000000 0.000000 0.000000
									}
								}
							}
						}
					}
				}
			}
		}
	}
}
MOTION
Frames: 5
Frame Time: 0.008333
-8.279947 17.015508 -0.847492 11.150860 80.856287 42.355137 -7.414848 -1.564972 1.461903 -12.919361 -1.816610 -56.173807 -3.805074 -1.528808 8.491399 2.317720 9.416490 -8.197397 0.656800 -0.000000 -35.772500 11.441135 -0.852012 -5.034973 7.293912 -12.438667 -26.180833 1.064800 -3.399420 42.485375 -1.009433 -4.355653 5.277871 -1.077000 -0.000000 -65.815600 -5.327416 2.455482 6.349513 -1.412321 2.892276 -1.989899 -3.003011 2.905288 -0.901987 2.604739 -5.821159 -4.661693 0.367424 -0.005198 0.534782 0.000000 0.000000 0.000000 4.450518 20.909808 0.604113 -56.048814 44.974660 32.996023 -179.596517 -80.689977 -179.994919 -3.219358 -1.347975 0.041724 0.051780 0.111363 0.000000 0.000000 0.000000 0.000000 0.000000 0.000000 0.000000 -11.256483 1.312251 -2.526415 68.353231 14.357824 24.579780 179.572914 75.658265 179.986647 -1.916288 7.224896 -0.131548 0.028014 -0.553971 -0.000000 0.000000 0.000000 0.000000 0.000000 0.000000 0.000000 
-8.031839 17.007261 -0.838229 10.151179 80.518590 41.322678 -7.389288 -1.597384 1.450875 -13.116041 -1.329729 -56.113129 -3.895121 -1.651467 7.725722 2.294080 9.203792 -8.494621 0.580000 0.000000 -36.251100 11.528875 -0.855297 -5.089213 6.998204 -12.820639 -26.252917 0.981180 -3.500612 43.676525 -1.126213 -5.072252 5.350568 -1.233200 -0.000000 -62.585700 -5.650264 2.442955 6.364605 -1.481783 2.894514 -1.998605 -3.035006 2.909279 -0.909280 2.603165 -5.884470 -4.816227 0.338135 -0.004404 0.491729 0.000000 0.000000 0.000000 4.012031 21.064198 0.656296 -57.084008 44.803810 31.234308 -179.570013 -80.228250 -179.994844 -2.995778 -1.406766 0.040570 0.047756 0.118468 0.000000 0.000000 0.000000 0.000000 0.000000 0.000000 0.000000 -11.194614 1.315774 -2.514842 68.853409 13.861228 24.899876 179.576820 75.574713 179.987195 -1.808285 7.187614 -0.123253 0.024160 -0.553239 -0.000000 0.000000 0.000000 0.000000 0.000000 0.000000 0.000000 
-7.785912 16.987776 -0.829752 9.286767 80.201157 40.439079 -7.372535 -1.621891 1.433562 -13.217399 -0.937366 -56.164641 -3.952307 -1.701551 7.466596 2.284949 9.063156 -8.755281 0.517501 -0.000000 -36.753500 11.611087 -0.849307 -5.145677 6.705593 -13.159199 -26.430050 0.903680 -3.617793 45.088851 -1.233219 -5.733365 5.018748 -1.344200 0.000000 -59.508400 -5.953274 2.416673 6.391332 -1.548039 2.882368 -2.005336 -3.076152 2.898728 -0.920957 2.630209 -5.943704 -4.983423 0.294699 -0.004370 0.444278 0.000000 0.000000 0.000000 3.500555 21.160174 0.719647 -58.206254 44.486264 29.345518 -179.546651 -79.804136 -179.994938 -2.659153 -1.412417 0.036334 0.041280 0.125310 0.000000 0.000000 0.000000 0.000000 0.000000 0.000000 0.000000 -11.042964 1.325573 -2.486936 69.335466 13.343969 25.181070 179.577989 75.510372 179.987891 -1.678819 7.181235 -0.114154 0.019876 -0.553306 -0.000000 0.000000 0.000000 0.000000 0.000000 0.000000 0.000000 
-7.542263 16.956827 -0.822124 8.535772 79.911109 39.689697 -7.367193 -1.636185 1.415001 -13.208026 -0.657951 -56.342697 -3.974259 -1.673584 7.719623 2.287871 9.007849 -8.910071 0.484400 -0.000000 -37.319900 11.689406 -0.836653 -5.201000 6.420139 -13.443505 -26.720320 0.828672 -3.752386 46.716837 -1.321923 -6.279845 4.360328 -1.391900 0.000000 -56.808800 -6.233883 2.376140 6.421472 -1.610450 2.855150 -2.011300 -3.125880 2.872847 -0.935747 2.688124 -5.993457 -5.161437 0.237380 -0.005129 0.392985 0.000000 0.000000 0.000000 2.929690 21.203162 0.793070 -59.394067 44.010276 27.364573 -179.526771 -79.415968 -179.995254 -2.209070 -1.372995 0.029617 0.032367 0.132022 0.000000 0.000000 0.000000 0.000000 0.000000 0.000000 0.000000 -10.800701 1.347021 -2.443096 69.798620 12.798146 25.411433 179.576425 75.479263 179.988845 -1.509671 7.214008 -0.102855 0.014688 -0.554220 -0.000000 0.000000 0.000000 0.000000 0.000000 0.000000 0.000000 
-7.301029 16.914229 -0.815165 7.901325 79.653306 39.080887 -7.373756 -1.637716 1.394633 -13.103073 -0.489654 -56.668327 -3.963024 -1.562519 8.499242 2.296557 9.025395 -8.910573 0.489600 -0.000000 -37.974100 11.766936 -0.819432 -5.250717 6.140050 -13.668529 -27.129402 0.751867 -3.905085 48.552243 -1.385627 -6.664821 3.462351 -1.368999 -0.000000 -54.644900 -6.495023 2.320228 6.450047 -1.669349 2.811714 -2.016988 -3.183387 2.830458 -0.952114 2.778635 -6.027175 -5.348791 0.166653 -0.006686 0.338266 0.000000 0.000000 0.000000 2.319255 21.203456 0.876006 -60.621721 43.362318 25.334769 -179.510642 -79.062952 -179.995844 -1.652550 -1.298449 0.021318 0.021195 0.138760 0.000000 0.000000 0.000000 0.000000 0.000000 0.000000 0.000000 -10.468418 1.386327 -2.384914 70.246360 12.215738 25.572951 179.572768 75.498709 179.990129 -1.288217 7.290077 -0.088156 0.008228 -0.555937 -0.000000 0.000000 0.000000 0.000000 0.000000 0.000000 0.000000 
